# xmcd
#
# Track frame offsets: 
#        182
#        18997
#        37217
#        56080
#        75490
#        98775
#        120272
#        140857
#        165857
#        189212
#        208750
#        226477
#        243590
#
# Disc length: 3408 seconds
#
# Revision: 6
# Processed by: cddbd v1.5.2PL0 Copyright (c) Steve Scherf et al.
# Submitted via: ExactAudioCopy v1.0b1
#
DISCID=a80d4e0d
DTITLE=Clarence Gatemouth Brown - Gate Swings
DYEAR=1997
DGENRE=Big Band
TTITLE0=Midnight Hour
TTITLE1=Honey Dew
TTITLE2=Toughen Up
TTITLE3=Take The A Train
TTITLE4=Too Late Baby
TTITLE5=Gate's Blues Waltz
TTITLE6=Caldonia
TTITLE7=Bits And Pieces
TTITLE8=River's Invitation
TTITLE9=One O'Clock Jump
TTITLE10=Take Me Back Baby
TTITLE11=Since I Fell For You
TTITLE12=Flying Home
EXTD=
EXTT0=
EXTT1=
EXTT2=
EXTT3=
EXTT4=
EXTT5=
EXTT6=
EXTT7=
EXTT8=
EXTT9=
EXTT10=
EXTT11=
EXTT12=
PLAYORDER=
